<mxfile host="65bd71144e">
    <diagram id="8VCpss-FVILqFPgny7ja" name="Page-1">
        <mxGraphModel dx="992" dy="787" grid="1" gridSize="10" guides="1" tooltips="1" connect="1" arrows="1" fold="1" page="1" pageScale="1" pageWidth="827" pageHeight="1169" math="0" shadow="0">
            <root>
                <mxCell id="0"/>
                <mxCell id="1" parent="0"/>
                <mxCell id="g5dJ3lTWeKkPB1iucdt4-3" value="&lt;h4&gt;Application Board&lt;/h4&gt;" style="rounded=1;whiteSpace=wrap;html=1;absoluteArcSize=1;arcSize=14;strokeWidth=2;horizontal=1;verticalAlign=top;" parent="1" vertex="1">
                    <mxGeometry x="130" y="310" width="150" height="130" as="geometry"/>
                </mxCell>
                <mxCell id="g5dJ3lTWeKkPB1iucdt4-4" value="&lt;b&gt;firmware.fwu2&lt;/b&gt;" style="rounded=1;whiteSpace=wrap;html=1;absoluteArcSize=1;arcSize=14;strokeWidth=2;" parent="1" vertex="1">
                    <mxGeometry x="150" y="370" width="110" height="40" as="geometry"/>
                </mxCell>
                <mxCell id="g5dJ3lTWeKkPB1iucdt4-5" value="Shuttle board" style="rounded=1;whiteSpace=wrap;html=1;absoluteArcSize=1;arcSize=14;strokeWidth=2;" parent="1" vertex="1">
                    <mxGeometry x="145" y="290" width="120" height="20" as="geometry"/>
                </mxCell>
                <mxCell id="g5dJ3lTWeKkPB1iucdt4-6" value="Sensor" style="rounded=1;whiteSpace=wrap;html=1;absoluteArcSize=1;arcSize=14;strokeWidth=2;" parent="1" vertex="1">
                    <mxGeometry x="150" y="270" width="80" height="20" as="geometry"/>
                </mxCell>
                <mxCell id="g5dJ3lTWeKkPB1iucdt4-7" value="&lt;h4&gt;PC (host)&lt;/h4&gt;" style="rounded=0;whiteSpace=wrap;html=1;absoluteArcSize=1;arcSize=14;strokeWidth=2;shadow=0;glass=0;verticalAlign=top;align=left;spacingLeft=10;" parent="1" vertex="1">
                    <mxGeometry x="430" y="180" width="220" height="260" as="geometry"/>
                </mxCell>
                <mxCell id="g5dJ3lTWeKkPB1iucdt4-8" value="&lt;h4&gt;example.exe&lt;/h4&gt;" style="rounded=0;whiteSpace=wrap;html=1;absoluteArcSize=1;arcSize=14;strokeWidth=2;shadow=0;glass=0;verticalAlign=top;align=left;spacingLeft=10;" parent="1" vertex="1">
                    <mxGeometry x="450" y="230" width="180" height="200" as="geometry"/>
                </mxCell>
                <mxCell id="g5dJ3lTWeKkPB1iucdt4-9" value="&lt;h4&gt;&lt;span style=&quot;font-weight: normal;&quot;&gt;example.c&lt;/span&gt;&lt;/h4&gt;" style="rounded=0;whiteSpace=wrap;html=1;absoluteArcSize=1;arcSize=14;strokeWidth=2;shadow=0;glass=0;verticalAlign=top;align=left;spacingLeft=10;fontStyle=1" parent="1" vertex="1">
                    <mxGeometry x="470" y="280" width="150" height="140" as="geometry"/>
                </mxCell>
                <mxCell id="g5dJ3lTWeKkPB1iucdt4-10" value="SensorAPI" style="rounded=0;whiteSpace=wrap;html=1;absoluteArcSize=1;arcSize=14;strokeWidth=2;shadow=0;glass=0;verticalAlign=top;align=left;spacingLeft=10;spacing=2;spacingTop=0;" parent="1" vertex="1">
                    <mxGeometry x="510" y="330" width="110" height="40" as="geometry"/>
                </mxCell>
                <mxCell id="g5dJ3lTWeKkPB1iucdt4-11" value="COINES API" style="rounded=0;whiteSpace=wrap;html=1;absoluteArcSize=1;arcSize=14;strokeWidth=2;shadow=0;glass=0;verticalAlign=top;align=left;spacingLeft=10;spacing=2;spacingTop=0;" parent="1" vertex="1">
                    <mxGeometry x="470" y="360" width="150" height="30" as="geometry"/>
                </mxCell>
                <mxCell id="g5dJ3lTWeKkPB1iucdt4-12" value="WinUSB, libUSB, BST" style="rounded=0;whiteSpace=wrap;html=1;absoluteArcSize=1;arcSize=14;strokeWidth=2;shadow=0;glass=0;verticalAlign=top;align=left;spacingLeft=10;spacing=2;spacingTop=0;" parent="1" vertex="1">
                    <mxGeometry x="470" y="390" width="150" height="30" as="geometry"/>
                </mxCell>
                <mxCell id="g5dJ3lTWeKkPB1iucdt4-14" style="edgeStyle=orthogonalEdgeStyle;rounded=0;orthogonalLoop=1;jettySize=auto;html=1;entryX=0;entryY=0.5;entryDx=0;entryDy=0;curved=1;endArrow=none;endFill=0;exitX=1;exitY=0.5;exitDx=0;exitDy=0;" parent="1" source="g5dJ3lTWeKkPB1iucdt4-4" target="g5dJ3lTWeKkPB1iucdt4-12" edge="1">
                    <mxGeometry relative="1" as="geometry">
                        <Array as="points">
                            <mxPoint x="260" y="430"/>
                            <mxPoint x="360" y="430"/>
                            <mxPoint x="360" y="380"/>
                            <mxPoint x="470" y="380"/>
                        </Array>
                    </mxGeometry>
                </mxCell>
                <mxCell id="g5dJ3lTWeKkPB1iucdt4-15" value="USB" style="edgeLabel;html=1;align=center;verticalAlign=middle;resizable=0;points=[];fontSize=15;" parent="g5dJ3lTWeKkPB1iucdt4-14" vertex="1" connectable="0">
                    <mxGeometry x="-0.4597" relative="1" as="geometry">
                        <mxPoint x="22" y="-25" as="offset"/>
                    </mxGeometry>
                </mxCell>
            </root>
        </mxGraphModel>
    </diagram>
</mxfile>